<?xml version="1.0" encoding="UTF-8" standalone="no"?>
<!-- Created with Inkscape (http://www.inkscape.org/) -->

<svg
   xmlns:dc="http://purl.org/dc/elements/1.1/"
   xmlns:cc="http://creativecommons.org/ns#"
   xmlns:rdf="http://www.w3.org/1999/02/22-rdf-syntax-ns#"
   xmlns:svg="http://www.w3.org/2000/svg"
   xmlns="http://www.w3.org/2000/svg"
   xmlns:sodipodi="http://sodipodi.sourceforge.net/DTD/sodipodi-0.dtd"
   xmlns:inkscape="http://www.inkscape.org/namespaces/inkscape"
   width="141.11111mm"
   height="141.11107mm"
   viewBox="0 0 500.00001 499.99985"
   id="svg10645"
   version="1.1"
   inkscape:version="0.92.1 r15371"
   sodipodi:docname="Emblem_of_the_Ukrainian_Navy.svg">
  <defs
     id="defs10647" />
  <sodipodi:namedview
     id="base"
     pagecolor="#ffffff"
     bordercolor="#666666"
     borderopacity="1.0"
     inkscape:pageopacity="0.0"
     inkscape:pageshadow="2"
     inkscape:zoom="1.1718753"
     inkscape:cx="266.66669"
     inkscape:cy="266.66656"
     inkscape:document-units="px"
     inkscape:current-layer="layer1"
     showgrid="false"
     fit-margin-top="0"
     fit-margin-left="0"
     fit-margin-right="0"
     fit-margin-bottom="0"
     inkscape:window-width="1600"
     inkscape:window-height="838"
     inkscape:window-x="-8"
     inkscape:window-y="-8"
     inkscape:window-maximized="1" />
  <metadata
     id="metadata10650">
    <rdf:RDF>
      <cc:Work
         rdf:about="">
        <dc:format>image/svg+xml</dc:format>
        <dc:type
           rdf:resource="http://purl.org/dc/dcmitype/StillImage" />
        <dc:title />
      </cc:Work>
    </rdf:RDF>
  </metadata>
  <g
     inkscape:label="Layer 1"
     inkscape:groupmode="layer"
     id="layer1"
     transform="translate(-125.00004,-282.36228)">
    <g
       id="g9153"
       transform="matrix(1.4109499,0,0,1.4109499,-1982.9917,-1517.7949)">
      <path
         style="color:#000000;font-style:normal;font-variant:normal;font-weight:normal;font-stretch:normal;font-size:medium;line-height:normal;font-family:sans-serif;text-indent:0;text-align:start;text-decoration:none;text-decoration-line:none;text-decoration-style:solid;text-decoration-color:#000000;letter-spacing:normal;word-spacing:normal;text-transform:none;direction:ltr;block-progression:tb;writing-mode:lr-tb;baseline-shift:baseline;text-anchor:start;white-space:normal;clip-rule:nonzero;display:inline;overflow:visible;visibility:visible;opacity:1;isolation:auto;mix-blend-mode:normal;color-interpolation:sRGB;color-interpolation-filters:linearRGB;solid-color:#000000;solid-opacity:1;fill:#ffdf00;fill-opacity:1;fill-rule:nonzero;stroke:#806600;stroke-width:1;stroke-linecap:butt;stroke-linejoin:miter;stroke-miterlimit:4;stroke-dasharray:none;stroke-dashoffset:0;stroke-opacity:1;color-rendering:auto;image-rendering:auto;shape-rendering:auto;text-rendering:auto;enable-background:accumulate"
         d="m 1609.3337,1276.3477 37.4629,152.2735 -152.2735,-37.4629 0,123.75 152.2755,-37.4648 -37.4649,152.2753 123.75,0 -37.4668,-152.2773 152.2774,37.4668 0,-123.75 -152.2754,37.4648 37.4648,-152.2754 z"
         id="path8328"
         inkscape:connector-curvature="0"
         sodipodi:nodetypes="ccccccccccccc" />
      <path
         style="opacity:1;fill:#d50663;stroke:#806600"
         d="m 1656.0179,1437.8425 -38.0721,-154.7446 106.5258,0 -38.0721,154.7446 154.7446,-38.0721 0,106.5258 -154.7446,-38.0721 38.0721,154.7446 -106.5258,0 38.0721,-154.7446 -154.7446,38.0721 0,-106.5258 z"
         id="path8330"
         inkscape:connector-curvature="0"
         sodipodi:nodetypes="ccccccccccccc" />
      <g
         transform="matrix(0.70710678,0.70710678,-0.70710678,0.70710678,1552.1854,-1201.3894)"
         id="g9113">
        <path
           inkscape:connector-curvature="0"
           style="opacity:1;fill:#ffdf00;stroke:#806600;stroke-width:1;stroke-linecap:butt;stroke-linejoin:miter;stroke-miterlimit:4;stroke-dasharray:none"
           d="m 1961.1227,1609.069 a 20.195082,20.195082 0 0 1 20.1953,20.1953 20.195082,20.195082 0 0 1 -16.7929,19.9062 l 0,3.2578 -6.8046,0 0,-3.2793 a 20.195082,20.195082 0 0 1 -16.793,-19.8847 20.195082,20.195082 0 0 1 20.1953,-20.1953 z m 0,8.25 a 11.945082,11.945082 0 0 0 -11.9453,11.9453 11.945082,11.945082 0 0 0 8.543,11.4414 l 0,-1.9004 c 0,-1.8852 1.517,-3.4024 3.4023,-3.4024 1.8852,0 3.4024,1.5172 3.4024,3.4024 l 0,1.9043 a 11.945082,11.945082 0 0 0 8.5429,-11.4453 11.945082,11.945082 0 0 0 -11.9453,-11.9453 z"
           id="path9013" />
        <path
           style="color:#000000;clip-rule:nonzero;display:inline;overflow:visible;visibility:visible;opacity:1;isolation:auto;mix-blend-mode:normal;color-interpolation:sRGB;color-interpolation-filters:linearRGB;solid-color:#000000;solid-opacity:1;fill:#ffdf00;fill-opacity:1;fill-rule:evenodd;stroke:#806600;stroke-width:1;stroke-linecap:round;stroke-linejoin:round;stroke-miterlimit:4;stroke-dasharray:none;stroke-dashoffset:0;stroke-opacity:1;color-rendering:auto;image-rendering:auto;shape-rendering:auto;text-rendering:auto;enable-background:accumulate"
           d="m 1961.1225,1959.295 c 6.1547,-6.9659 14.7856,-12.9293 26.8759,-17.6371 9.7027,-3.7781 18.9925,-8.6335 25.9344,-18.0971 5.289,-7.2104 7.9396,-15.7801 10.1021,-24.6196 0.076,-0.3128 0.3905,-0.4026 0.7939,-0.066 4.4842,3.7415 7.4821,8.703 10.5475,13.6108 0.039,-14.8859 -0.9165,-30.6177 -5.6689,-49.5798 -7.9357,11.9001 -15.4554,24.0419 -26.8195,33.9494 4.3297,0.6644 10.2899,-1.0801 14.0546,-0.1702 0.6807,0.1644 1.0197,0.5173 0.6086,1.2209 -6.5146,11.1481 -13.9407,19.9237 -23.738,22.6705 -5.1882,1.4547 -14,2.6254 -16.7715,-2.7842 -4.6236,-9.0251 -6.034,-22.023 -6.7842,-32.5739 l -1.8499,-26.021 c -1.0249,-66.8726 -0.8051,-133.4962 -3.3085,-200.6645 l -3.9765,-3.7123"
           id="path9015"
           inkscape:connector-curvature="0"
           sodipodi:nodetypes="csssscccssssscc" />
        <path
           style="color:#000000;clip-rule:nonzero;display:inline;overflow:visible;visibility:visible;opacity:1;isolation:auto;mix-blend-mode:normal;color-interpolation:sRGB;color-interpolation-filters:linearRGB;solid-color:#000000;solid-opacity:1;fill:none;fill-opacity:1;fill-rule:evenodd;stroke:#806600;stroke-width:1;stroke-linecap:round;stroke-linejoin:round;stroke-miterlimit:4;stroke-dasharray:none;stroke-dashoffset:0;stroke-opacity:1;color-rendering:auto;image-rendering:auto;shape-rendering:auto;text-rendering:auto;enable-background:accumulate"
           d="m 2029.7074,1862.9062 c -5.17,24.8855 -13.7853,82.2231 -68.5849,71.9732"
           id="path9017"
           inkscape:connector-curvature="0"
           sodipodi:nodetypes="cc" />
        <path
           style="color:#000000;clip-rule:nonzero;display:inline;overflow:visible;visibility:visible;opacity:1;isolation:auto;mix-blend-mode:normal;color-interpolation:sRGB;color-interpolation-filters:linearRGB;solid-color:#000000;solid-opacity:1;fill:none;fill-opacity:1;fill-rule:evenodd;stroke:#806600;stroke-width:1;stroke-linecap:round;stroke-linejoin:round;stroke-miterlimit:4;stroke-dasharray:none;stroke-dashoffset:0;stroke-opacity:1;color-rendering:auto;image-rendering:auto;shape-rendering:auto;text-rendering:auto;enable-background:accumulate"
           d="m 2002.8879,1896.8556 18.1461,-5.1139"
           id="path9019"
           inkscape:connector-curvature="0" />
        <path
           style="color:#000000;clip-rule:nonzero;display:inline;overflow:visible;visibility:visible;opacity:1;isolation:auto;mix-blend-mode:normal;color-interpolation:sRGB;color-interpolation-filters:linearRGB;solid-color:#000000;solid-opacity:1;fill:none;fill-opacity:1;fill-rule:evenodd;stroke:#806600;stroke-width:1;stroke-linecap:round;stroke-linejoin:round;stroke-miterlimit:4;stroke-dasharray:none;stroke-dashoffset:0;stroke-opacity:1;color-rendering:auto;image-rendering:auto;shape-rendering:auto;text-rendering:auto;enable-background:accumulate"
           d="m 2022.8981,1891.5935 c 4.9534,6.9642 8.504,13.9283 12.4782,20.8925"
           id="path9021"
           inkscape:connector-curvature="0"
           sodipodi:nodetypes="cc" />
        <path
           sodipodi:nodetypes="csssscccssssscc"
           inkscape:connector-curvature="0"
           id="path9023"
           d="m 1961.1225,1959.295 c -6.1547,-6.9659 -14.7856,-12.9293 -26.8759,-17.6371 -9.7027,-3.7781 -18.9925,-8.6335 -25.9344,-18.0971 -5.289,-7.2104 -7.9396,-15.7801 -10.1021,-24.6196 -0.076,-0.3128 -0.3905,-0.4026 -0.7939,-0.066 -4.4842,3.7415 -7.4821,8.703 -10.5475,13.6108 -0.039,-14.8859 0.9165,-30.6177 5.6689,-49.5798 7.9357,11.9001 15.4554,24.0419 26.8195,33.9494 -4.3297,0.6644 -10.2899,-1.0801 -14.0546,-0.1702 -0.6807,0.1644 -1.0197,0.5173 -0.6086,1.2209 6.5146,11.1481 13.9407,19.9237 23.738,22.6705 5.1882,1.4547 14,2.6254 16.7715,-2.7842 4.6236,-9.0251 6.034,-22.023 6.7842,-32.5739 l 1.8499,-26.021 c 1.0249,-66.8726 0.8051,-133.4962 3.3085,-200.6645 l 3.9765,-3.7123"
           style="color:#000000;clip-rule:nonzero;display:inline;overflow:visible;visibility:visible;opacity:1;isolation:auto;mix-blend-mode:normal;color-interpolation:sRGB;color-interpolation-filters:linearRGB;solid-color:#000000;solid-opacity:1;fill:#ffdf00;fill-opacity:1;fill-rule:evenodd;stroke:#806600;stroke-width:1;stroke-linecap:round;stroke-linejoin:round;stroke-miterlimit:4;stroke-dasharray:none;stroke-dashoffset:0;stroke-opacity:1;color-rendering:auto;image-rendering:auto;shape-rendering:auto;text-rendering:auto;enable-background:accumulate" />
        <path
           sodipodi:nodetypes="cc"
           inkscape:connector-curvature="0"
           id="path9025"
           d="m 1892.5376,1862.9062 c 5.17,24.8855 13.7853,82.2231 68.5849,71.9732"
           style="color:#000000;clip-rule:nonzero;display:inline;overflow:visible;visibility:visible;opacity:1;isolation:auto;mix-blend-mode:normal;color-interpolation:sRGB;color-interpolation-filters:linearRGB;solid-color:#000000;solid-opacity:1;fill:none;fill-opacity:1;fill-rule:evenodd;stroke:#806600;stroke-width:1;stroke-linecap:round;stroke-linejoin:round;stroke-miterlimit:4;stroke-dasharray:none;stroke-dashoffset:0;stroke-opacity:1;color-rendering:auto;image-rendering:auto;shape-rendering:auto;text-rendering:auto;enable-background:accumulate" />
        <path
           inkscape:connector-curvature="0"
           id="path9027"
           d="m 1919.3571,1896.8556 -18.1461,-5.1139"
           style="color:#000000;clip-rule:nonzero;display:inline;overflow:visible;visibility:visible;opacity:1;isolation:auto;mix-blend-mode:normal;color-interpolation:sRGB;color-interpolation-filters:linearRGB;solid-color:#000000;solid-opacity:1;fill:none;fill-opacity:1;fill-rule:evenodd;stroke:#806600;stroke-width:1;stroke-linecap:round;stroke-linejoin:round;stroke-miterlimit:4;stroke-dasharray:none;stroke-dashoffset:0;stroke-opacity:1;color-rendering:auto;image-rendering:auto;shape-rendering:auto;text-rendering:auto;enable-background:accumulate" />
        <path
           sodipodi:nodetypes="cc"
           inkscape:connector-curvature="0"
           id="path9029"
           d="m 1899.3469,1891.5935 c -4.9534,6.9642 -8.504,13.9283 -12.4782,20.8925"
           style="color:#000000;clip-rule:nonzero;display:inline;overflow:visible;visibility:visible;opacity:1;isolation:auto;mix-blend-mode:normal;color-interpolation:sRGB;color-interpolation-filters:linearRGB;solid-color:#000000;solid-opacity:1;fill:none;fill-opacity:1;fill-rule:evenodd;stroke:#806600;stroke-width:1;stroke-linecap:round;stroke-linejoin:round;stroke-miterlimit:4;stroke-dasharray:none;stroke-dashoffset:0;stroke-opacity:1;color-rendering:auto;image-rendering:auto;shape-rendering:auto;text-rendering:auto;enable-background:accumulate" />
        <path
           style="color:#000000;clip-rule:nonzero;display:inline;overflow:visible;visibility:visible;opacity:1;isolation:auto;mix-blend-mode:normal;color-interpolation:sRGB;color-interpolation-filters:linearRGB;solid-color:#000000;solid-opacity:1;fill:none;fill-opacity:1;fill-rule:evenodd;stroke:#806600;stroke-width:1;stroke-linecap:round;stroke-linejoin:round;stroke-miterlimit:4;stroke-dasharray:none;stroke-dashoffset:0;stroke-opacity:1;color-rendering:auto;image-rendering:auto;shape-rendering:auto;text-rendering:auto;enable-background:accumulate"
           d="m 1961.1225,1959.295 0,-304.4741"
           id="path9031"
           inkscape:connector-curvature="0" />
        <path
           style="opacity:1;fill:#ffdf00;stroke:#806600;stroke-width:1;stroke-linecap:butt;stroke-linejoin:miter;stroke-miterlimit:4;stroke-dasharray:none"
           d="m 2012.9966,1651.0138 -103.7483,0 0,8.567 51.8742,8.1317 51.8741,-8.1317 z"
           id="path9033"
           inkscape:connector-curvature="0"
           sodipodi:nodetypes="cccccc" />
        <path
           style="color:#000000;font-style:normal;font-variant:normal;font-weight:normal;font-stretch:normal;font-size:medium;line-height:normal;font-family:sans-serif;text-indent:0;text-align:start;text-decoration:none;text-decoration-line:none;text-decoration-style:solid;text-decoration-color:#000000;letter-spacing:normal;word-spacing:normal;text-transform:none;direction:ltr;block-progression:tb;writing-mode:lr-tb;baseline-shift:baseline;text-anchor:start;white-space:normal;clip-rule:nonzero;display:inline;overflow:visible;visibility:visible;opacity:1;isolation:auto;mix-blend-mode:normal;color-interpolation:sRGB;color-interpolation-filters:linearRGB;solid-color:#000000;solid-opacity:1;fill:#806600;fill-opacity:1;fill-rule:evenodd;stroke:none;stroke-width:1.5;stroke-linecap:round;stroke-linejoin:round;stroke-miterlimit:4;stroke-dasharray:none;stroke-dashoffset:0;stroke-opacity:1;color-rendering:auto;image-rendering:auto;shape-rendering:auto;text-rendering:auto;enable-background:accumulate"
           d="m 1999.9857,1651.0143 a 0.750075,0.750075 0 0 1 0.01,0.127 l 0,10.4766 -1.4883,0.2343 a 0.750075,0.750075 0 0 1 -0.012,-0.1426 l 0,-10.5683 a 0.750075,0.750075 0 0 1 0.01,-0.127 l 1.4803,0 z m -16.2364,0 0,13.1504 -1.4728,0.2305 a 0.750075,0.750075 0 0 1 -0.027,-0.2109 l 0,-13.17 1.5,0 z m -43.7538,0 0,13.17 a 0.750075,0.750075 0 0 1 -0.029,0.2109 l -1.4708,-0.2305 0,-13.1504 1.5,0 z m -16.2561,0 a 0.750075,0.750075 0 0 1 0.01,0.127 l 0,10.5683 a 0.750075,0.750075 0 0 1 -0.012,0.1426 l -1.4882,-0.2343 0,-10.4766 a 0.750075,0.750075 0 0 1 0.01,-0.127 l 1.4803,0 z"
           id="path9035"
           inkscape:connector-curvature="0" />
      </g>
      <g
         id="g9127"
         transform="matrix(-0.70710678,0.70710678,0.70710678,0.70710678,1790.232,-1201.3894)">
        <path
           id="path9129"
           d="m 1961.1227,1609.069 a 20.195082,20.195082 0 0 1 20.1953,20.1953 20.195082,20.195082 0 0 1 -16.7929,19.9062 l 0,3.2578 -6.8046,0 0,-3.2793 a 20.195082,20.195082 0 0 1 -16.793,-19.8847 20.195082,20.195082 0 0 1 20.1953,-20.1953 z m 0,8.25 a 11.945082,11.945082 0 0 0 -11.9453,11.9453 11.945082,11.945082 0 0 0 8.543,11.4414 l 0,-1.9004 c 0,-1.8852 1.517,-3.4024 3.4023,-3.4024 1.8852,0 3.4024,1.5172 3.4024,3.4024 l 0,1.9043 a 11.945082,11.945082 0 0 0 8.5429,-11.4453 11.945082,11.945082 0 0 0 -11.9453,-11.9453 z"
           style="opacity:1;fill:#ffdf00;stroke:#806600;stroke-width:1;stroke-linecap:butt;stroke-linejoin:miter;stroke-miterlimit:4;stroke-dasharray:none"
           inkscape:connector-curvature="0" />
        <path
           sodipodi:nodetypes="csssscccssssscc"
           inkscape:connector-curvature="0"
           id="path9131"
           d="m 1961.1225,1959.295 c 6.1547,-6.9659 14.7856,-12.9293 26.8759,-17.6371 9.7027,-3.7781 18.9925,-8.6335 25.9344,-18.0971 5.289,-7.2104 7.9396,-15.7801 10.1021,-24.6196 0.076,-0.3128 0.3905,-0.4026 0.7939,-0.066 4.4842,3.7415 7.4821,8.703 10.5475,13.6108 0.039,-14.8859 -0.9165,-30.6177 -5.6689,-49.5798 -7.9357,11.9001 -15.4554,24.0419 -26.8195,33.9494 4.3297,0.6644 10.2899,-1.0801 14.0546,-0.1702 0.6807,0.1644 1.0197,0.5173 0.6086,1.2209 -6.5146,11.1481 -13.9407,19.9237 -23.738,22.6705 -5.1882,1.4547 -14,2.6254 -16.7715,-2.7842 -4.6236,-9.0251 -6.034,-22.023 -6.7842,-32.5739 l -1.8499,-26.021 c -1.0249,-66.8726 -0.8051,-133.4962 -3.3085,-200.6645 l -3.9765,-3.7123"
           style="color:#000000;clip-rule:nonzero;display:inline;overflow:visible;visibility:visible;opacity:1;isolation:auto;mix-blend-mode:normal;color-interpolation:sRGB;color-interpolation-filters:linearRGB;solid-color:#000000;solid-opacity:1;fill:#ffdf00;fill-opacity:1;fill-rule:evenodd;stroke:#806600;stroke-width:1;stroke-linecap:round;stroke-linejoin:round;stroke-miterlimit:4;stroke-dasharray:none;stroke-dashoffset:0;stroke-opacity:1;color-rendering:auto;image-rendering:auto;shape-rendering:auto;text-rendering:auto;enable-background:accumulate" />
        <path
           sodipodi:nodetypes="cc"
           inkscape:connector-curvature="0"
           id="path9133"
           d="m 2029.7074,1862.9062 c -5.17,24.8855 -13.7853,82.2231 -68.5849,71.9732"
           style="color:#000000;clip-rule:nonzero;display:inline;overflow:visible;visibility:visible;opacity:1;isolation:auto;mix-blend-mode:normal;color-interpolation:sRGB;color-interpolation-filters:linearRGB;solid-color:#000000;solid-opacity:1;fill:none;fill-opacity:1;fill-rule:evenodd;stroke:#806600;stroke-width:1;stroke-linecap:round;stroke-linejoin:round;stroke-miterlimit:4;stroke-dasharray:none;stroke-dashoffset:0;stroke-opacity:1;color-rendering:auto;image-rendering:auto;shape-rendering:auto;text-rendering:auto;enable-background:accumulate" />
        <path
           inkscape:connector-curvature="0"
           id="path9135"
           d="m 2002.8879,1896.8556 18.1461,-5.1139"
           style="color:#000000;clip-rule:nonzero;display:inline;overflow:visible;visibility:visible;opacity:1;isolation:auto;mix-blend-mode:normal;color-interpolation:sRGB;color-interpolation-filters:linearRGB;solid-color:#000000;solid-opacity:1;fill:none;fill-opacity:1;fill-rule:evenodd;stroke:#806600;stroke-width:1;stroke-linecap:round;stroke-linejoin:round;stroke-miterlimit:4;stroke-dasharray:none;stroke-dashoffset:0;stroke-opacity:1;color-rendering:auto;image-rendering:auto;shape-rendering:auto;text-rendering:auto;enable-background:accumulate" />
        <path
           sodipodi:nodetypes="cc"
           inkscape:connector-curvature="0"
           id="path9137"
           d="m 2022.8981,1891.5935 c 4.9534,6.9642 8.504,13.9283 12.4782,20.8925"
           style="color:#000000;clip-rule:nonzero;display:inline;overflow:visible;visibility:visible;opacity:1;isolation:auto;mix-blend-mode:normal;color-interpolation:sRGB;color-interpolation-filters:linearRGB;solid-color:#000000;solid-opacity:1;fill:none;fill-opacity:1;fill-rule:evenodd;stroke:#806600;stroke-width:1;stroke-linecap:round;stroke-linejoin:round;stroke-miterlimit:4;stroke-dasharray:none;stroke-dashoffset:0;stroke-opacity:1;color-rendering:auto;image-rendering:auto;shape-rendering:auto;text-rendering:auto;enable-background:accumulate" />
        <path
           style="color:#000000;clip-rule:nonzero;display:inline;overflow:visible;visibility:visible;opacity:1;isolation:auto;mix-blend-mode:normal;color-interpolation:sRGB;color-interpolation-filters:linearRGB;solid-color:#000000;solid-opacity:1;fill:#ffdf00;fill-opacity:1;fill-rule:evenodd;stroke:#806600;stroke-width:1;stroke-linecap:round;stroke-linejoin:round;stroke-miterlimit:4;stroke-dasharray:none;stroke-dashoffset:0;stroke-opacity:1;color-rendering:auto;image-rendering:auto;shape-rendering:auto;text-rendering:auto;enable-background:accumulate"
           d="m 1961.1225,1959.295 c -6.1547,-6.9659 -14.7856,-12.9293 -26.8759,-17.6371 -9.7027,-3.7781 -18.9925,-8.6335 -25.9344,-18.0971 -5.289,-7.2104 -7.9396,-15.7801 -10.1021,-24.6196 -0.076,-0.3128 -0.3905,-0.4026 -0.7939,-0.066 -4.4842,3.7415 -7.4821,8.703 -10.5475,13.6108 -0.039,-14.8859 0.9165,-30.6177 5.6689,-49.5798 7.9357,11.9001 15.4554,24.0419 26.8195,33.9494 -4.3297,0.6644 -10.2899,-1.0801 -14.0546,-0.1702 -0.6807,0.1644 -1.0197,0.5173 -0.6086,1.2209 6.5146,11.1481 13.9407,19.9237 23.738,22.6705 5.1882,1.4547 14,2.6254 16.7715,-2.7842 4.6236,-9.0251 6.034,-22.023 6.7842,-32.5739 l 1.8499,-26.021 c 1.0249,-66.8726 0.8051,-133.4962 3.3085,-200.6645 l 3.9765,-3.7123"
           id="path9139"
           inkscape:connector-curvature="0"
           sodipodi:nodetypes="csssscccssssscc" />
        <path
           style="color:#000000;clip-rule:nonzero;display:inline;overflow:visible;visibility:visible;opacity:1;isolation:auto;mix-blend-mode:normal;color-interpolation:sRGB;color-interpolation-filters:linearRGB;solid-color:#000000;solid-opacity:1;fill:none;fill-opacity:1;fill-rule:evenodd;stroke:#806600;stroke-width:1;stroke-linecap:round;stroke-linejoin:round;stroke-miterlimit:4;stroke-dasharray:none;stroke-dashoffset:0;stroke-opacity:1;color-rendering:auto;image-rendering:auto;shape-rendering:auto;text-rendering:auto;enable-background:accumulate"
           d="m 1892.5376,1862.9062 c 5.17,24.8855 13.7853,82.2231 68.5849,71.9732"
           id="path9141"
           inkscape:connector-curvature="0"
           sodipodi:nodetypes="cc" />
        <path
           style="color:#000000;clip-rule:nonzero;display:inline;overflow:visible;visibility:visible;opacity:1;isolation:auto;mix-blend-mode:normal;color-interpolation:sRGB;color-interpolation-filters:linearRGB;solid-color:#000000;solid-opacity:1;fill:none;fill-opacity:1;fill-rule:evenodd;stroke:#806600;stroke-width:1;stroke-linecap:round;stroke-linejoin:round;stroke-miterlimit:4;stroke-dasharray:none;stroke-dashoffset:0;stroke-opacity:1;color-rendering:auto;image-rendering:auto;shape-rendering:auto;text-rendering:auto;enable-background:accumulate"
           d="m 1919.3571,1896.8556 -18.1461,-5.1139"
           id="path9143"
           inkscape:connector-curvature="0" />
        <path
           style="color:#000000;clip-rule:nonzero;display:inline;overflow:visible;visibility:visible;opacity:1;isolation:auto;mix-blend-mode:normal;color-interpolation:sRGB;color-interpolation-filters:linearRGB;solid-color:#000000;solid-opacity:1;fill:none;fill-opacity:1;fill-rule:evenodd;stroke:#806600;stroke-width:1;stroke-linecap:round;stroke-linejoin:round;stroke-miterlimit:4;stroke-dasharray:none;stroke-dashoffset:0;stroke-opacity:1;color-rendering:auto;image-rendering:auto;shape-rendering:auto;text-rendering:auto;enable-background:accumulate"
           d="m 1899.3469,1891.5935 c -4.9534,6.9642 -8.504,13.9283 -12.4782,20.8925"
           id="path9145"
           inkscape:connector-curvature="0"
           sodipodi:nodetypes="cc" />
        <path
           inkscape:connector-curvature="0"
           id="path9147"
           d="m 1961.1225,1959.295 0,-304.4741"
           style="color:#000000;clip-rule:nonzero;display:inline;overflow:visible;visibility:visible;opacity:1;isolation:auto;mix-blend-mode:normal;color-interpolation:sRGB;color-interpolation-filters:linearRGB;solid-color:#000000;solid-opacity:1;fill:none;fill-opacity:1;fill-rule:evenodd;stroke:#806600;stroke-width:1;stroke-linecap:round;stroke-linejoin:round;stroke-miterlimit:4;stroke-dasharray:none;stroke-dashoffset:0;stroke-opacity:1;color-rendering:auto;image-rendering:auto;shape-rendering:auto;text-rendering:auto;enable-background:accumulate" />
        <path
           sodipodi:nodetypes="cccccc"
           inkscape:connector-curvature="0"
           id="path9149"
           d="m 2012.9966,1651.0138 -103.7483,0 0,8.567 51.8742,8.1317 51.8741,-8.1317 z"
           style="opacity:1;fill:#ffdf00;stroke:#806600;stroke-width:1;stroke-linecap:butt;stroke-linejoin:miter;stroke-miterlimit:4;stroke-dasharray:none" />
        <path
           inkscape:connector-curvature="0"
           id="path9151"
           d="m 1999.9857,1651.0143 a 0.750075,0.750075 0 0 1 0.01,0.127 l 0,10.4766 -1.4883,0.2343 a 0.750075,0.750075 0 0 1 -0.012,-0.1426 l 0,-10.5683 a 0.750075,0.750075 0 0 1 0.01,-0.127 l 1.4803,0 z m -16.2364,0 0,13.1504 -1.4728,0.2305 a 0.750075,0.750075 0 0 1 -0.027,-0.2109 l 0,-13.17 1.5,0 z m -43.7538,0 0,13.17 a 0.750075,0.750075 0 0 1 -0.029,0.2109 l -1.4708,-0.2305 0,-13.1504 1.5,0 z m -16.2561,0 a 0.750075,0.750075 0 0 1 0.01,0.127 l 0,10.5683 a 0.750075,0.750075 0 0 1 -0.012,0.1426 l -1.4882,-0.2343 0,-10.4766 a 0.750075,0.750075 0 0 1 0.01,-0.127 l 1.4803,0 z"
           style="color:#000000;font-style:normal;font-variant:normal;font-weight:normal;font-stretch:normal;font-size:medium;line-height:normal;font-family:sans-serif;text-indent:0;text-align:start;text-decoration:none;text-decoration-line:none;text-decoration-style:solid;text-decoration-color:#000000;letter-spacing:normal;word-spacing:normal;text-transform:none;direction:ltr;block-progression:tb;writing-mode:lr-tb;baseline-shift:baseline;text-anchor:start;white-space:normal;clip-rule:nonzero;display:inline;overflow:visible;visibility:visible;opacity:1;isolation:auto;mix-blend-mode:normal;color-interpolation:sRGB;color-interpolation-filters:linearRGB;solid-color:#000000;solid-opacity:1;fill:#806600;fill-opacity:1;fill-rule:evenodd;stroke:none;stroke-width:1.5;stroke-linecap:round;stroke-linejoin:round;stroke-miterlimit:4;stroke-dasharray:none;stroke-dashoffset:0;stroke-opacity:1;color-rendering:auto;image-rendering:auto;shape-rendering:auto;text-rendering:auto;enable-background:accumulate" />
      </g>
      <path
         style="opacity:1;fill:#ffdf00;stroke:#806600;stroke-width:1;stroke-miterlimit:4;stroke-dasharray:none"
         d="m 1741.8337,1453.0333 a 70.625,70.625 0 0 1 -70.625,70.625 70.625,70.625 0 0 1 -70.625,-70.625 70.625,70.625 0 0 1 70.625,-70.625 70.625,70.625 0 0 1 70.625,70.625 z"
         id="path8332"
         inkscape:connector-curvature="0" />
      <path
         id="path8334"
         d="m 1734.5471,1453.0333 a 63.338378,63.338378 0 0 1 -63.3384,63.3384 63.338378,63.338378 0 0 1 -63.3383,-63.3384 63.338378,63.338378 0 0 1 63.3383,-63.3384 63.338378,63.338378 0 0 1 63.3384,63.3384 z"
         style="opacity:1;fill:#001788;stroke:#806600;stroke-width:1;stroke-miterlimit:4;stroke-dasharray:none"
         inkscape:connector-curvature="0" />
      <path
         style="display:inline;opacity:1;fill:#ffdf00;fill-opacity:1"
         id="path8336"
         d="m 1671.2087,1399.8 c -2.4808,2.8152 -3.9925,6.5001 -3.9925,10.5448 0.147,8.8808 1.2362,17.7436 1.3308,26.6218 0.1969,8.2743 -2.2848,16.0458 -5.3025,23.6268 -1.0055,2.095 -2.0932,4.1455 -3.1815,6.198 l -3.2023,-0.6448 c -2.8815,-0.5762 -4.7558,-3.3783 -4.1796,-6.2602 0.504,-2.5218 2.7232,-4.2729 5.1985,-4.2845 l 1.1645,0.1248 -2.5994,-21.7134 c -0.8495,-9.6692 -5.837,-18.1505 -13.1835,-23.6685 -1.2624,-0.9482 -2.6001,-1.8152 -3.9925,-2.579 l 0,77.1201 17.7999,0 c 1.3309,7.2263 5.3072,13.5218 10.8962,17.8451 1.3294,0.9164 2.443,2.1251 3.2439,3.5356 0.8009,-1.4105 1.9145,-2.6192 3.2439,-3.5356 5.589,-4.3233 9.5653,-10.6188 10.8962,-17.8451 l 17.7999,0 0,-77.1201 c -1.3924,0.7638 -2.73,1.6308 -3.9925,2.579 -7.3465,5.518 -12.334,13.9993 -13.1836,23.6685 l -2.5993,21.7134 1.1645,-0.1248 c 2.4754,0.012 4.6945,1.7627 5.1986,4.2845 0.5761,2.8819 -1.2982,5.684 -4.1797,6.2602 l -3.2023,0.6448 c -1.0883,-2.0525 -2.176,-4.103 -3.1815,-6.198 -3.0176,-7.581 -5.4995,-15.3525 -5.3026,-23.6268 0.095,-8.8782 1.1839,-17.741 1.3309,-26.6218 0,-4.0447 -1.5117,-7.7296 -3.9925,-10.5448 z m -26.6166,19.0721 c 3.4449,4.0439 5.7568,9.083 6.4462,14.6212 l 2.1418,17.9074 c -2.7273,1.358 -4.7948,3.8493 -5.5729,6.8634 l -3.0151,0 0,-39.392 z m 53.2332,0 0,39.392 -3.0151,0 c -0.7781,-3.0141 -2.8456,-5.5054 -5.5729,-6.8634 l 2.1418,-17.9074 c 0.6894,-5.5382 3.0014,-10.5773 6.4462,-14.6212 z m -26.6166,36.0018 c 1.4299,4.6779 3.3973,9.1199 5.8432,13.2485 -2.3264,0.7069 -4.3512,2.0819 -5.8432,3.9309 -1.492,-1.849 -3.5168,-3.2239 -5.8431,-3.9309 2.4458,-4.1286 4.4131,-8.5706 5.8431,-13.2485 z m -26.6166,8.7146 3.0151,0 c 0.9507,3.6744 3.8189,6.5778 7.4651,7.5913 l 2.5577,0.5824 c -0.6848,2.4831 -1.0604,5.0995 -1.0604,7.7993 l -11.9775,0 0,-15.973 z m 50.2181,0 3.0151,0 0,15.973 -11.9774,0 c 0,-2.6998 -0.3757,-5.3162 -1.0606,-7.7993 l 2.5577,-0.5824 c 3.6463,-1.0135 6.5145,-3.9169 7.4652,-7.5913 z m -31.9816,9.4008 c 3.2293,0.4565 5.7184,3.217 5.7184,6.5722 l -6.6541,0 c 0,-2.2823 0.338,-4.4818 0.9357,-6.5722 z m 16.7602,0 c 0.5977,2.0904 0.9357,4.2899 0.9357,6.5722 l -6.6542,0 c 0,-3.3552 2.4892,-6.1157 5.7185,-6.5722 z m -17.0929,11.8966 6.0511,0 0,11.2103 c -2.9367,-3.0707 -5.0699,-6.9263 -6.0511,-11.2103 z m 11.3744,0 6.0512,0 c -0.9812,4.284 -3.1145,8.1396 -6.0512,11.2103 l 0,-11.2103 z"
         inkscape:connector-curvature="0" />
    </g>
  </g>
</svg>
